<svg xmlns="http://www.w3.org/2000/svg" viewBox="0 0 32 32">
  <path d="M6 26 L6 14 Q6 10 10 10 L16 10 L16 14 L20 14 L26 20 L26 24 Q26 26 24 26 Z" fill="#8B5E3C"/>
  <path d="M24 22 L28 22 Q30 22 30 24 Q30 26 28 26 L6 26 L6 24 Q6 22 8 22 Z" fill="#6B4226"/>
  <rect x="10" y="10" width="6" height="10" rx="1" fill="#A0714F"/>
  <line x1="10" y1="12" x2="16" y2="12" stroke="#fff" stroke-width="1" opacity="0.7"/>
  <line x1="10" y1="14" x2="16" y2="14" stroke="#fff" stroke-width="1" opacity="0.7"/>
  <line x1="10" y1="16" x2="16" y2="16" stroke="#fff" stroke-width="1" opacity="0.7"/>
  <rect x="5" y="25" width="24" height="3" rx="1.5" fill="#3d2b1f"/>
  <path d="M12 8 Q14 6 16 8 L16 14 L12 14 Z" fill="#A0714F"/>
</svg>
